<svg version="1.1" xmlns="http://www.w3.org/2000/svg" xmlns:xlink="http://www.w3.org/1999/xlink" width="64px" height="64px" viewBox="0,0,256,256"><g fill="#ffffff" fill-rule="nonzero" stroke="none" stroke-width="1" stroke-linecap="butt" stroke-linejoin="miter" stroke-miterlimit="10" stroke-dasharray="" stroke-dashoffset="0" font-family="none" font-weight="none" font-size="none" text-anchor="none" style="mix-blend-mode: normal"><g transform="translate(2.466,-10.84) scale(4,4)"><g><path d="M33.804,48.495c7.451,0 13.513,-6.06 13.513,-13.512c0,-7.451 -6.062,-13.514 -13.513,-13.514c-7.451,0 -13.513,6.062 -13.513,13.514c0,7.452 6.061,13.512 13.513,13.512z"></path><path d="M33.804,52.122c9.466,0 17.139,-7.674 17.139,-17.139c0,-9.467 -7.673,-17.139 -17.139,-17.139c-9.466,0 -17.139,7.672 -17.139,17.139c0,9.465 7.673,17.139 17.139,17.139zM33.804,20.47c8.002,0 14.513,6.512 14.513,14.514c0,8.002 -6.511,14.512 -14.513,14.512c-8.002,0 -14.513,-6.51 -14.513,-14.512c0,-8.002 6.511,-14.514 14.513,-14.514z"></path><path d="M60.467,53.717l-1,-38.468c0,-0.828 -0.672,-1.5 -1.5,-1.5c-0.222,0 -0.43,0.051 -0.619,0.138v-0.014c0,0 -0.039,0.025 -0.094,0.063c-0.143,0.079 -0.273,0.177 -0.384,0.296c-1.097,0.901 -4.598,4.573 -4.89,9.537c-0.445,7.572 3.233,10.638 4.486,13.447l-1,16.5c0,0.828 1.672,1.5 2.5,1.5c0.829,0.001 2.501,-0.671 2.501,-1.499z"></path><path d="M4.918,30.282l2.589,1.293c0.295,0.148 0.62,0.256 0.96,0.336l-1,22.502c0,0.695 1.672,1.258 2.5,1.258c0.828,0 2.5,-0.562 2.5,-1.258l-1,-22.617c0.352,-0.111 0.691,-0.246 0.988,-0.428l1.918,-1.168c1.384,-0.844 2.427,-2.701 2.427,-4.322v-10.082c0,-0.828 -0.672,-1.5 -1.5,-1.5c-0.828,0 -1.5,0.672 -1.5,1.5v9.082h-0.833v-9.082c0,-0.828 -0.672,-1.5 -1.5,-1.5c-0.828,0 -1.5,0.672 -1.5,1.5v9.082h-0.836v-9.082c0,-0.828 -0.672,-1.5 -1.5,-1.5c-0.828,0 -1.5,0.672 -1.5,1.5v9.082h-0.831v-8.758c0,-0.828 -0.672,-1.5 -1.5,-1.5c-0.828,0 -1.5,0.672 -1.5,1.5v9.926c0,1.668 1.126,3.49 2.618,4.236z"></path></g></g></g></svg>