<svg version="1.1" xmlns="http://www.w3.org/2000/svg" xmlns:xlink="http://www.w3.org/1999/xlink" width="800px" height="800px" viewBox="0,0,256,256"><g fill="none" fill-rule="nonzero" stroke="#ffffff" stroke-width="2" stroke-linecap="round" stroke-linejoin="round" stroke-miterlimit="10" stroke-dasharray="" stroke-dashoffset="0" font-family="none" font-weight="none" font-size="none" text-anchor="none" style="mix-blend-mode: normal"><g transform="translate(0.00224,0.71763) scale(10.66667,10.66667)"><path d="M11.2691,4.41115c0.2315,-0.51938 0.3473,-0.77907 0.5085,-0.85904c0.14,-0.06948 0.3044,-0.06948 0.4444,0c0.1612,0.07997 0.277,0.33966 0.5085,0.85904l1.844,4.13693c0.0685,0.15354 0.1027,0.23031 0.1557,0.2891c0.0468,0.05202 0.1041,0.09363 0.168,0.12211c0.0723,0.0322 0.1559,0.04102 0.3231,0.05866l4.5043,0.47541c0.5655,0.05968 0.8482,0.08952 0.9741,0.21811c0.1093,0.11169 0.1601,0.26809 0.1373,0.42273c-0.0262,0.178 -0.2374,0.3683 -0.6598,0.749l-3.3647,3.0322c-0.1248,0.1125 -0.1873,0.1688 -0.2268,0.2373c-0.035,0.0607 -0.0569,0.128 -0.0642,0.1976c-0.0083,0.0787 0.0091,0.1609 0.044,0.3254l0.9398,4.4307c0.118,0.5563 0.177,0.8344 0.0936,0.9938c-0.0725,0.1386 -0.2055,0.2352 -0.3596,0.2613c-0.1774,0.03 -0.4237,-0.112 -0.9163,-0.3961l-3.9235,-2.263c-0.1456,-0.084 -0.2184,-0.1259 -0.2958,-0.1424c-0.0685,-0.0145 -0.1393,-0.0145 -0.2078,0c-0.0774,0.0165 -0.1502,0.0584 -0.2958,0.1424l-3.92348,2.263c-0.49258,0.2841 -0.73887,0.4261 -0.91628,0.3961c-0.15411,-0.0261 -0.28715,-0.1227 -0.35959,-0.2613c-0.08339,-0.1594 -0.0244,-0.4375 0.09359,-0.9938l0.93976,-4.4307c0.03488,-0.1645 0.05232,-0.2467 0.04404,-0.3254c-0.00733,-0.0696 -0.0292,-0.1369 -0.0642,-0.1976c-0.03955,-0.0685 -0.10199,-0.1248 -0.22686,-0.2373l-3.36462,-3.0322c-0.42241,-0.3807 -0.63362,-0.571 -0.65988,-0.749c-0.0228,-0.15464 0.02801,-0.31104 0.13735,-0.42273c0.12588,-0.12859 0.40863,-0.15843 0.97413,-0.21811l4.50429,-0.47541c0.16718,-0.01764 0.25076,-0.02646 0.32304,-0.05866c0.06395,-0.02848 0.12121,-0.07009 0.16807,-0.12211c0.05295,-0.05879 0.08717,-0.13556 0.15562,-0.2891z"></path></g></g></svg>